<?xml version="1.0" encoding="UTF-8"?>
<svg xmlns="http://www.w3.org/2000/svg" xmlns:xlink="http://www.w3.org/1999/xlink" width="100px" height="100px" viewBox="0 0 375 375" version="1.1">
<defs>
<clipPath id="clip1">
  <path d="M 141.347656 39 L 306.347656 39 L 306.347656 54 L 141.347656 54 Z M 141.347656 39 "/>
</clipPath>
<clipPath id="clip2">
  <path d="M 154 68 L 294 68 L 294 162.574219 L 154 162.574219 Z M 154 68 "/>
</clipPath>
</defs>
<g id="surface1">
<g clip-path="url(#clip1)" clip-rule="nonzero">
<path style=" stroke:none;fill-rule:nonzero;fill:rgb(6.27451%,5.882353%,5.098039%);fill-opacity:1;" d="M 223.847656 46.140625 C 223.847656 46.140625 173.457031 46.140625 141.347656 39.140625 L 146.445312 47.171875 C 178.519531 53.148438 223.847656 53.148438 223.847656 53.148438 C 223.847656 53.148438 269.175781 53.148438 301.25 47.171875 L 306.347656 39.140625 C 274.238281 46.140625 223.847656 46.140625 223.847656 46.140625 "/>
</g>
<g clip-path="url(#clip2)" clip-rule="nonzero">
<path style=" stroke:none;fill-rule:nonzero;fill:rgb(6.27451%,5.882353%,5.098039%);fill-opacity:1;" d="M 272.097656 68.828125 L 262.539062 68.828125 L 262.539062 78.902344 L 228.628906 78.902344 L 228.628906 68.828125 L 219.066406 68.828125 L 219.066406 78.902344 L 185.15625 78.902344 L 185.15625 68.828125 L 175.597656 68.828125 L 175.597656 78.902344 L 154.503906 78.902344 L 154.503906 88.472656 L 175.597656 88.472656 L 175.597656 162.257812 L 185.15625 162.257812 L 185.15625 93.71875 C 185.15625 90.820312 187.507812 88.472656 190.410156 88.472656 L 257.285156 88.472656 C 260.1875 88.472656 262.539062 90.820312 262.539062 93.71875 L 262.539062 162.257812 L 272.097656 162.257812 L 272.097656 88.472656 L 293.191406 88.472656 L 293.191406 78.902344 L 272.097656 78.902344 L 272.097656 68.828125 "/>
</g>
<path style=" stroke:none;fill-rule:nonzero;fill:rgb(6.27451%,5.882353%,5.098039%);fill-opacity:1;" d="M 152.847656 51.34375 L 154.84375 62.738281 L 292.851562 62.738281 L 294.847656 51.34375 C 263.628906 56.132812 224.273438 56.191406 223.847656 56.191406 C 223.421875 56.191406 184.066406 56.132812 152.847656 51.34375 "/>
<path style=" stroke:none;fill-rule:nonzero;fill:rgb(14.117647%,14.117647%,14.117647%);fill-opacity:1;" d="M 113.835938 154.929688 C 112.085938 152.515625 110.0625 150.617188 107.773438 149.242188 C 105.480469 147.867188 102.792969 147.179688 99.710938 147.179688 C 96.542969 147.179688 93.835938 148.222656 91.585938 150.304688 C 89.335938 152.390625 88.210938 154.890625 88.210938 157.804688 C 88.210938 160.472656 89.3125 162.742188 91.523438 164.617188 C 93.730469 166.492188 97 168.265625 101.335938 169.929688 C 108.835938 173.015625 114.148438 175.972656 117.273438 178.804688 C 120.398438 181.640625 122.5625 184.679688 123.773438 187.929688 C 124.980469 191.179688 125.585938 194.765625 125.585938 198.679688 C 125.585938 208.265625 122.75 216.035156 117.085938 221.992188 C 111.417969 227.953125 103.917969 230.929688 94.585938 230.929688 C 88.085938 230.929688 82.4375 229.242188 77.648438 225.867188 C 72.855469 222.492188 68.835938 218.054688 65.585938 212.554688 L 77.460938 200.929688 C 78.875 204.929688 81.167969 208.222656 84.335938 210.804688 C 87.5 213.390625 90.875 214.679688 94.460938 214.679688 C 97.960938 214.679688 100.855469 213.410156 103.148438 210.867188 C 105.4375 208.328125 106.585938 205.054688 106.585938 201.054688 C 106.585938 197.554688 105.5 194.765625 103.335938 192.679688 C 101.167969 190.597656 97.960938 188.722656 93.710938 187.054688 C 84.292969 183.472656 77.855469 179.679688 74.398438 175.679688 C 70.9375 171.679688 69.210938 166.429688 69.210938 159.929688 C 69.210938 154.929688 70.375 150.265625 72.710938 145.929688 C 75.042969 141.597656 78.335938 138.140625 82.585938 135.554688 C 86.835938 132.972656 91.542969 131.679688 96.710938 131.679688 C 101.292969 131.679688 106.105469 132.722656 111.148438 134.804688 C 116.1875 136.890625 119.960938 139.347656 122.460938 142.179688 Z M 113.835938 154.929688 "/>
<path style=" stroke:none;fill-rule:nonzero;fill:rgb(14.117647%,14.117647%,14.117647%);fill-opacity:1;" d="M 144.066406 122.429688 L 144.066406 172.179688 L 144.316406 172.179688 C 146.230469 169.679688 148.585938 167.867188 151.378906 166.742188 C 154.167969 165.617188 157.148438 165.054688 160.316406 165.054688 C 167.398438 165.054688 172.710938 167.203125 176.253906 171.492188 C 179.792969 175.785156 181.566406 182.097656 181.566406 190.429688 L 181.566406 228.429688 L 164.066406 228.429688 L 164.066406 192.554688 C 164.066406 189.222656 163.710938 186.617188 163.003906 184.742188 C 162.292969 182.867188 161.316406 181.453125 160.066406 180.492188 C 158.816406 179.535156 156.941406 179.054688 154.441406 179.054688 C 150.855469 179.054688 148.230469 180.492188 146.566406 183.367188 C 144.898438 186.242188 144.066406 190.679688 144.066406 196.679688 L 144.066406 228.429688 L 126.566406 228.429688 L 126.566406 122.429688 Z M 144.066406 122.429688 "/>
<path style=" stroke:none;fill-rule:nonzero;fill:rgb(14.117647%,14.117647%,14.117647%);fill-opacity:1;" d="M 224.050781 182.804688 C 221.882812 181.304688 219.464844 180.554688 216.800781 180.554688 C 212.300781 180.554688 208.945312 182.078125 206.738281 185.117188 C 204.527344 188.160156 203.425781 193.179688 203.425781 200.179688 L 203.425781 228.429688 L 185.925781 228.429688 L 185.925781 167.054688 L 203.425781 167.054688 L 203.425781 173.429688 L 203.675781 173.429688 C 205.425781 170.765625 207.589844 168.703125 210.175781 167.242188 C 212.757812 165.785156 215.675781 165.054688 218.925781 165.054688 C 221.339844 165.140625 223.757812 165.640625 226.175781 166.554688 Z M 224.050781 182.804688 "/>
<path style=" stroke:none;fill-rule:nonzero;fill:rgb(14.117647%,14.117647%,14.117647%);fill-opacity:1;" d="M 222.914062 141.304688 C 222.914062 138.554688 223.914062 136.140625 225.914062 134.054688 C 227.914062 131.972656 230.371094 130.929688 233.289062 130.929688 C 236.203125 130.929688 238.664062 131.972656 240.664062 134.054688 C 242.664062 136.140625 243.664062 138.554688 243.664062 141.304688 C 243.664062 144.222656 242.664062 146.679688 240.664062 148.679688 C 238.664062 150.679688 236.203125 151.679688 233.289062 151.679688 C 230.371094 151.679688 227.914062 150.679688 225.914062 148.679688 C 223.914062 146.679688 222.914062 144.222656 222.914062 141.304688 Z M 242.039062 167.054688 L 242.039062 228.429688 L 224.539062 228.429688 L 224.539062 167.054688 Z M 242.039062 167.054688 "/>
<path style=" stroke:none;fill-rule:nonzero;fill:rgb(14.117647%,14.117647%,14.117647%);fill-opacity:1;" d="M 302.152344 228.429688 L 284.652344 228.429688 L 284.652344 192.929688 C 284.652344 188.429688 283.984375 184.992188 282.652344 182.617188 C 281.316406 180.242188 278.816406 179.054688 275.152344 179.054688 C 271.816406 179.054688 269.234375 180.367188 267.402344 182.992188 C 265.566406 185.617188 264.652344 190.179688 264.652344 196.679688 L 264.652344 228.429688 L 247.152344 228.429688 L 247.152344 167.054688 L 264.652344 167.054688 L 264.652344 172.679688 L 264.902344 172.679688 C 266.734375 169.929688 269.066406 167.972656 271.902344 166.804688 C 274.734375 165.640625 277.734375 165.054688 280.902344 165.054688 C 287.984375 165.054688 293.296875 167.203125 296.839844 171.492188 C 300.378906 175.785156 302.152344 182.097656 302.152344 190.429688 Z M 302.152344 228.429688 "/>
<path style=" stroke:none;fill-rule:nonzero;fill:rgb(14.117647%,14.117647%,14.117647%);fill-opacity:1;" d="M 320.636719 200.554688 C 320.636719 205.640625 321.71875 209.660156 323.886719 212.617188 C 326.050781 215.578125 329.011719 217.054688 332.761719 217.054688 C 335.675781 217.054688 338.074219 216.265625 339.949219 214.679688 C 341.824219 213.097656 343.34375 211.097656 344.511719 208.679688 L 360.636719 211.304688 C 358.46875 217.554688 354.90625 222.304688 349.949219 225.554688 C 344.988281 228.804688 339.261719 230.429688 332.761719 230.429688 C 323.675781 230.429688 316.300781 227.472656 310.636719 221.554688 C 304.96875 215.640625 302.136719 207.890625 302.136719 198.304688 C 302.136719 188.222656 304.800781 180.160156 310.136719 174.117188 C 315.46875 168.078125 322.71875 165.054688 331.886719 165.054688 C 341.050781 165.054688 348.199219 168.015625 353.324219 173.929688 C 358.449219 179.847656 361.011719 188.222656 361.011719 199.054688 L 361.011719 200.554688 Z M 344.511719 189.679688 C 343.925781 185.847656 342.550781 182.828125 340.386719 180.617188 C 338.21875 178.410156 335.675781 177.304688 332.761719 177.304688 C 330.011719 177.304688 327.550781 178.304688 325.386719 180.304688 C 323.21875 182.304688 321.800781 185.429688 321.136719 189.679688 Z M 344.511719 189.679688 "/>
<path style=" stroke:none;fill-rule:nonzero;fill:rgb(14.117647%,14.117647%,14.117647%);fill-opacity:1;" d="M 54.605469 208.234375 C 53.269531 207.820312 52.125 207.484375 51.167969 207.234375 C 50.207031 206.984375 49.105469 206.859375 47.855469 206.859375 C 44.855469 206.859375 42.75 207.734375 41.542969 209.484375 C 40.332031 211.234375 39.730469 214.484375 39.730469 219.234375 L 39.730469 242.859375 L 54.605469 242.859375 L 54.605469 252.109375 L 39.730469 252.109375 L 39.730469 301.609375 L 29.730469 301.609375 L 29.730469 252.109375 L 24.230469 252.109375 L 24.230469 242.859375 L 29.730469 242.859375 L 29.730469 216.734375 C 29.730469 212.234375 30.332031 208.609375 31.542969 205.859375 C 32.75 203.109375 34.730469 200.945312 37.480469 199.359375 C 40.230469 197.777344 43.5625 196.945312 47.480469 196.859375 C 48.730469 196.859375 50 196.984375 51.292969 197.234375 C 52.582031 197.484375 53.6875 197.777344 54.605469 198.109375 Z M 54.605469 208.234375 "/>
<path style=" stroke:none;fill-rule:nonzero;fill:rgb(14.117647%,14.117647%,14.117647%);fill-opacity:1;" d="M 66.847656 242.859375 L 66.847656 301.609375 L 56.847656 301.609375 L 56.847656 242.859375 Z M 54.722656 220.484375 C 54.722656 218.652344 55.449219 217.046875 56.910156 215.671875 C 58.367188 214.296875 60.011719 213.609375 61.847656 213.609375 C 63.761719 213.609375 65.429688 214.296875 66.847656 215.671875 C 68.261719 217.046875 68.972656 218.652344 68.972656 220.484375 C 68.972656 222.652344 68.261719 224.421875 66.847656 225.796875 C 65.429688 227.171875 63.761719 227.859375 61.847656 227.859375 C 59.929688 227.859375 58.261719 227.195312 56.847656 225.859375 C 55.429688 224.527344 54.722656 222.734375 54.722656 220.484375 Z M 54.722656 220.484375 "/>
<path style=" stroke:none;fill-rule:nonzero;fill:rgb(14.117647%,14.117647%,14.117647%);fill-opacity:1;" d="M 126.585938 301.609375 L 116.585938 301.609375 L 116.585938 267.359375 C 116.585938 261.445312 115.6875 257.152344 113.898438 254.484375 C 112.105469 251.820312 108.875 250.484375 104.210938 250.484375 C 98.875 250.484375 95.105469 252.320312 92.898438 255.984375 C 90.6875 259.652344 89.585938 265.234375 89.585938 272.734375 L 89.585938 301.609375 L 79.585938 301.609375 L 79.585938 242.859375 L 89.585938 242.859375 L 89.585938 249.984375 L 89.835938 249.984375 C 91.917969 247.152344 94.3125 244.984375 97.023438 243.484375 C 99.730469 241.984375 102.917969 241.234375 106.585938 241.234375 C 113.167969 241.234375 118.148438 243.257812 121.523438 247.296875 C 124.898438 251.339844 126.585938 257.609375 126.585938 266.109375 Z M 126.585938 301.609375 "/>
<path style=" stroke:none;fill-rule:nonzero;fill:rgb(14.117647%,14.117647%,14.117647%);fill-opacity:1;" d="M 191.070312 198.484375 L 191.070312 301.609375 L 181.070312 301.609375 L 181.070312 293.484375 L 180.820312 293.484375 C 178.320312 296.734375 175.339844 299.171875 171.882812 300.796875 C 168.421875 302.421875 164.652344 303.234375 160.570312 303.234375 C 155.234375 303.234375 150.402344 301.835938 146.070312 299.046875 C 141.734375 296.257812 138.382812 292.507812 136.007812 287.796875 C 133.632812 283.089844 132.445312 277.945312 132.445312 272.359375 C 132.445312 266.609375 133.632812 261.339844 136.007812 256.546875 C 138.382812 251.757812 141.734375 248.007812 146.070312 245.296875 C 150.402344 242.589844 155.277344 241.234375 160.695312 241.234375 C 164.695312 241.234375 168.445312 242.109375 171.945312 243.859375 C 175.445312 245.609375 178.402344 248.070312 180.820312 251.234375 L 181.070312 251.234375 L 181.070312 198.484375 Z M 161.820312 250.484375 C 156.402344 250.484375 151.859375 252.546875 148.195312 256.671875 C 144.527344 260.796875 142.695312 265.777344 142.695312 271.609375 C 142.695312 278.027344 144.484375 283.359375 148.070312 287.609375 C 151.652344 291.859375 156.277344 293.984375 161.945312 293.984375 C 167.777344 293.984375 172.507812 291.945312 176.132812 287.859375 C 179.757812 283.777344 181.570312 278.402344 181.570312 271.734375 C 181.570312 265.402344 179.714844 260.277344 176.007812 256.359375 C 172.296875 252.445312 167.570312 250.484375 161.820312 250.484375 Z M 161.820312 250.484375 "/>
<path style=" stroke:none;fill-rule:nonzero;fill:rgb(14.117647%,14.117647%,14.117647%);fill-opacity:1;" d="M 252.550781 274.359375 L 206.425781 274.359375 C 206.589844 280.195312 208.507812 284.921875 212.175781 288.546875 C 215.839844 292.171875 220.339844 293.984375 225.675781 293.984375 C 229.425781 293.984375 232.738281 293.027344 235.613281 291.109375 C 238.488281 289.195312 241.132812 286.109375 243.550781 281.859375 L 252.050781 286.734375 C 249.214844 291.984375 245.488281 296.046875 240.863281 298.921875 C 236.238281 301.796875 230.925781 303.234375 224.925781 303.234375 C 219.175781 303.234375 214.089844 301.859375 209.675781 299.109375 C 205.257812 296.359375 201.902344 292.671875 199.613281 288.046875 C 197.320312 283.421875 196.175781 278.402344 196.175781 272.984375 C 196.175781 266.984375 197.320312 261.570312 199.613281 256.734375 C 201.902344 251.902344 205.214844 248.109375 209.550781 245.359375 C 213.882812 242.609375 218.925781 241.234375 224.675781 241.234375 C 230.257812 241.234375 235.195312 242.589844 239.488281 245.296875 C 243.777344 248.007812 247.050781 251.734375 249.300781 256.484375 C 251.550781 261.234375 252.675781 266.570312 252.675781 272.484375 C 252.675781 273.070312 252.632812 273.695312 252.550781 274.359375 Z M 242.050781 265.859375 C 241.214844 261.277344 239.175781 257.570312 235.925781 254.734375 C 232.675781 251.902344 228.964844 250.484375 224.800781 250.484375 C 220.714844 250.484375 216.882812 251.964844 213.300781 254.921875 C 209.714844 257.882812 207.589844 261.527344 206.925781 265.859375 Z M 242.050781 265.859375 "/>
<path style=" stroke:none;fill-rule:nonzero;fill:rgb(14.117647%,14.117647%,14.117647%);fill-opacity:1;" d="M 285.160156 253.109375 C 284.160156 252.359375 283.222656 251.734375 282.347656 251.234375 C 281.472656 250.734375 280.410156 250.484375 279.160156 250.484375 C 275.410156 250.484375 272.554688 252.152344 270.597656 255.484375 C 268.636719 258.820312 267.660156 264.195312 267.660156 271.609375 L 267.660156 301.609375 L 257.660156 301.609375 L 257.660156 242.859375 L 267.660156 242.859375 L 267.660156 249.234375 L 267.910156 249.234375 C 270.324219 245.984375 272.472656 243.839844 274.347656 242.796875 C 276.222656 241.757812 278.410156 241.234375 280.910156 241.234375 C 282.410156 241.234375 283.929688 241.484375 285.472656 241.984375 C 287.011719 242.484375 288.492188 243.152344 289.910156 243.984375 Z M 285.160156 253.109375 "/>
</g>
</svg>
